# xmcd CD database file
#
# Track frame offsets:
#	150
#	34090
#	54093
#	84794
#	113027
#	137432
#	178689
#	211329
#	220770
#
# Disc length: 4019 seconds
#
# Revision: 1
# Processed by: cddbd v1.5.1PL0 Copyright (c) Steve Scherf et al.
# Submitted via: CDex 1.51
#
DISCID=6c0fb109
DTITLE=Bunco and the Single Malt Quartet - Bunco
DYEAR=1997
DGENRE=Jazz
TTITLE0=Witchhunt
TTITLE1=Up Jumped Spring
TTITLE2=4 on 6
TTITLE3=Cool Blue Egg
TTITLE4=Off Minor
TTITLE5=Hackensack
TTITLE6=Fable of Faubus
TTITLE7=Reincarnation of a Lovebird
TTITLE8=Beastly Love
EXTD=YEAR: 1997
EXTT0=
EXTT1=
EXTT2=
EXTT3=
EXTT4=
EXTT5=
EXTT6=
EXTT7=
EXTT8=
PLAYORDER=
